<?xml version="1.0" standalone="no"?>
<!DOCTYPE svg PUBLIC "-//W3C//DTD SVG 20010904//EN"
 "http://www.w3.org/TR/2001/REC-SVG-20010904/DTD/svg10.dtd">
<svg version="1.0" xmlns="http://www.w3.org/2000/svg"
 width="200.000000pt" height="200.000000pt" viewBox="0 0 200.000000 200.000000"
 preserveAspectRatio="xMidYMid meet">

<g transform="translate(0.000000,200.000000) scale(0.100000,-0.100000)"
fill="#000000" stroke="none">
<path d="M878 1429 c-17 -9 -18 -38 -18 -367 0 -265 3 -361 12 -370 13 -13
222 -18 252 -6 14 5 16 48 16 374 0 326 -2 369 -16 374 -26 10 -228 6 -246 -5z"/>
<path d="M495 1217 c-3 -7 -4 -129 -3 -272 l3 -260 124 -3 c82 -2 128 1 137 9
11 9 14 59 12 268 l-2 256 -6 -260 -5 -260 -125 0 -125 0 -3 262 -2 262 127 4
128 3 -128 2 c-95 1 -129 -1 -132 -11z"/>
<path d="M1252 1132 c-9 -7 -12 -59 -10 -228 l3 -219 125 -3 c109 -2 126 0
137 15 10 12 13 71 13 214 0 166 -2 200 -16 213 -12 13 -39 16 -127 16 -62 0
-118 -4 -125 -8z"/>
</g>
</svg>
